<svg xmlns="http://www.w3.org/2000/svg" viewBox="0 0 512 512" width="512" height="512">
  <!-- Full-bleed background so this works as a maskable PWA icon -->
  <rect width="512" height="512" fill="#2b2118"/>
  <!-- Open book, centred within the maskable safe zone -->
  <g>
    <path d="M256 158c-36-22-88-22-124-13a16 16 0 0 0-12 16v210c0 10 9 17 19 15 32-8 77-7 117 13V158z" fill="#e9ddc4"/>
    <path d="M256 158c36-22 88-22 124-13a16 16 0 0 1 12 16v210c0 10-9 17-19 15-32-8-77-7-117 13V158z" fill="#cdbf9e"/>
    <path d="M256 152v246" stroke="#2b2118" stroke-width="16" stroke-linecap="round"/>
    <!-- a few page lines for texture -->
    <g stroke="#b6a888" stroke-width="6" stroke-linecap="round" opacity="0.8">
      <path d="M168 206c24-5 52-5 72 3"/>
      <path d="M168 246c24-5 52-5 72 3"/>
      <path d="M168 286c24-5 52-5 72 3"/>
    </g>
    <g stroke="#9f9170" stroke-width="6" stroke-linecap="round" opacity="0.8">
      <path d="M344 206c-24-5-52-5-72 3"/>
      <path d="M344 246c-24-5-52-5-72 3"/>
      <path d="M344 286c-24-5-52-5-72 3"/>
    </g>
  </g>
</svg>
